<svg width="24" height="24" viewBox="0 0 24 24" fill="none" xmlns="http://www.w3.org/2000/svg">
<path d="M19.5 12C19.5 11.7656 19.5 11.5312 19.4531 11.2969L21.3281 9.89062C21.75 9.60938 21.8438 9.04688 21.6094 8.625L19.7344 5.39062C19.4531 4.92188 18.9375 4.78125 18.4688 4.96875L16.3125 5.85938C15.9375 5.625 15.5625 5.39062 15.1406 5.20312L14.8594 2.85938C14.8125 2.39062 14.3906 2.01562 13.875 2.01562H10.125C9.60938 2.01562 9.18751 2.39062 9.14063 2.85938L8.85938 5.20312C8.43751 5.39062 8.06251 5.625 7.68751 5.85938L5.53126 4.96875C5.06251 4.78125 4.54688 4.92188 4.26563 5.39062L2.39063 8.625C2.15626 9.04688 2.25001 9.60938 2.67188 9.9375L4.54688 11.3438C4.50001 11.5312 4.50001 11.7656 4.50001 12C4.50001 12.2344 4.50001 12.4688 4.54688 12.7031L2.67188 14.1094C2.25001 14.3906 2.15626 14.9531 2.39063 15.375L4.26563 18.6094C4.54688 19.0781 5.06251 19.2188 5.53126 19.0312L7.68751 18.1406C8.06251 18.375 8.43751 18.6094 8.85938 18.7969L9.14063 21.1406C9.18751 21.6094 9.60938 21.9844 10.125 21.9844H13.875C14.3438 21.9844 14.8125 21.6094 14.8594 21.1406L15.1406 18.7969C15.5625 18.6094 15.9375 18.375 16.3125 18.1406L18.4688 19.0312C18.9375 19.2188 19.4531 19.0781 19.6875 18.6094L21.5625 15.375C21.8438 14.9531 21.7031 14.3906 21.3281 14.1094L19.4531 12.7031C19.5 12.4688 19.5 12.2344 19.5 12ZM12.0469 15.5156C10.125 15.5156 8.53126 13.9219 8.53126 12C8.53126 10.0781 10.125 8.48438 12.0469 8.48438C13.9688 8.48438 15.5625 10.0781 15.5625 12C15.5625 13.9219 13.9688 15.5156 12.0469 15.5156Z" fill="#666666"/>
</svg>
