<svg width="110" height="180" viewBox="0 0 110 180" fill="none" xmlns="http://www.w3.org/2000/svg">
<circle cx="55" cy="55" r="55" fill="#CDD32A"/>
<circle cx="55" cy="55" r="53.5" fill="#CDD32A" stroke="white" stroke-width="3"/>
<path d="M29.5186 96.25H80.4814L55 176.689L29.5186 96.25Z" fill="#CDD32A" stroke="white" stroke-width="2"/>
<circle cx="55" cy="55" r="52" fill="#CDD32A"/>
<path d="M54.4091 74.4773C52.1591 74.4773 50.1534 74.0909 48.392 73.3182C46.642 72.5455 45.25 71.4716 44.2159 70.0966C43.1932 68.7102 42.6364 67.1023 42.5455 65.2727H46.8409C46.9318 66.3977 47.3182 67.3693 48 68.1875C48.6818 68.9943 49.5739 69.6193 50.6761 70.0625C51.7784 70.5057 53 70.7273 54.3409 70.7273C55.8409 70.7273 57.1705 70.4659 58.3295 69.9432C59.4886 69.4205 60.3977 68.6932 61.0568 67.7614C61.7159 66.8295 62.0455 65.75 62.0455 64.5227C62.0455 63.2386 61.7273 62.108 61.0909 61.1307C60.4545 60.142 59.5227 59.3693 58.2955 58.8125C57.0682 58.2557 55.5682 57.9773 53.7955 57.9773H51V54.2273H53.7955C55.1818 54.2273 56.3977 53.9773 57.4432 53.4773C58.5 52.9773 59.3239 52.2727 59.9148 51.3636C60.517 50.4545 60.8182 49.3864 60.8182 48.1591C60.8182 46.9773 60.5568 45.9489 60.0341 45.0739C59.5114 44.1989 58.7727 43.517 57.8182 43.0284C56.875 42.5398 55.7614 42.2955 54.4773 42.2955C53.2727 42.2955 52.1364 42.517 51.0682 42.9602C50.0114 43.392 49.1477 44.0227 48.4773 44.8523C47.8068 45.6705 47.4432 46.6591 47.3864 47.8182H43.2955C43.3636 45.9886 43.9148 44.3864 44.9489 43.0114C45.983 41.625 47.3352 40.5455 49.0057 39.7727C50.6875 39 52.5341 38.6136 54.5455 38.6136C56.7045 38.6136 58.5568 39.0511 60.1023 39.9261C61.6477 40.7898 62.8352 41.9318 63.6648 43.3523C64.4943 44.7727 64.9091 46.3068 64.9091 47.9545C64.9091 49.9205 64.392 51.5966 63.358 52.983C62.3352 54.3693 60.9432 55.3295 59.1818 55.8636V56.1364C61.3864 56.5 63.108 57.4375 64.3466 58.9489C65.5852 60.4489 66.2045 62.3068 66.2045 64.5227C66.2045 66.4205 65.6875 68.125 64.6534 69.6364C63.6307 71.1364 62.233 72.3182 60.4602 73.1818C58.6875 74.0455 56.6705 74.4773 54.4091 74.4773Z" fill="white"/>
</svg>
