<svg width="110" height="180" viewBox="0 0 110 180" fill="none" xmlns="http://www.w3.org/2000/svg">
<circle cx="55" cy="55" r="55" fill="#674ED8"/>
<circle cx="55" cy="55" r="53.5" fill="#674ED8" stroke="white" stroke-width="3"/>
<path d="M29.5186 96.25H80.4814L55 176.689L29.5186 96.25Z" fill="#674ED8" stroke="white" stroke-width="2"/>
<circle cx="55" cy="55" r="52" fill="#674ED8"/>
<path d="M54.5227 75.4773C52.5227 75.4773 50.7216 75.0795 49.1193 74.2841C47.517 73.4886 46.233 72.3977 45.267 71.0114C44.3011 69.625 43.7727 68.0455 43.6818 66.2727H47.7727C47.9318 67.8523 48.6477 69.1591 49.9205 70.1932C51.2045 71.2159 52.7386 71.7273 54.5227 71.7273C55.9545 71.7273 57.2273 71.392 58.3409 70.7216C59.4659 70.0511 60.3466 69.1307 60.983 67.9602C61.6307 66.7784 61.9545 65.4432 61.9545 63.9545C61.9545 62.4318 61.6193 61.0739 60.9489 59.8807C60.2898 58.6761 59.3807 57.7273 58.2216 57.0341C57.0625 56.3409 55.7386 55.9886 54.25 55.9773C53.1818 55.9659 52.0852 56.1307 50.9602 56.4716C49.8352 56.8011 48.9091 57.2273 48.1818 57.75L44.2273 57.2727L46.3409 40.0909H64.4773V43.8409H49.8864L48.6591 54.1364H48.8636C49.5795 53.5682 50.4773 53.0966 51.5568 52.7216C52.6364 52.3466 53.7614 52.1591 54.9318 52.1591C57.0682 52.1591 58.9716 52.6705 60.642 53.6932C62.3239 54.7045 63.642 56.0909 64.5966 57.8523C65.5625 59.6136 66.0455 61.625 66.0455 63.8864C66.0455 66.1136 65.5455 68.1023 64.5455 69.8523C63.5568 71.5909 62.1932 72.9659 60.4545 73.9773C58.7159 74.9773 56.7386 75.4773 54.5227 75.4773Z" fill="white"/>
</svg>
