<?xml version="1.0" encoding="UTF-8"?>
<svg version="1.1" xmlns="http://www.w3.org/2000/svg" width="60" height="97">
<path d="M0 0 C5.71195891 4.56783361 11.32946752 9.82747056 12.3125 17.41064453 C12.47577253 20.23883086 12.50758425 23.04228167 12.5 25.875 C12.52835938 26.83019531 12.55671875 27.78539063 12.5859375 28.76953125 C12.60804053 36.82608561 10.16408103 41.2353893 5.0859375 47.27734375 C4.52132812 47.82519531 3.95671875 48.37304688 3.375 48.9375 C2.80523437 49.50339844 2.23546875 50.06929687 1.6484375 50.65234375 C0 52 0 52 -3 53 C-4.08825232 55.24380411 -4.08825232 55.24380411 -4.8671875 58.0390625 C-5.19332031 59.08843994 -5.51945312 60.13781738 -5.85546875 61.21899414 C-6.19191406 62.34297607 -6.52835938 63.46695801 -6.875 64.625 C-7.58004083 66.90776479 -8.28576871 69.1903175 -8.9921875 71.47265625 C-9.50410645 73.14545654 -9.50410645 73.14545654 -10.02636719 74.85205078 C-11.29158466 78.9427514 -12.6301071 83.00586256 -14 87.0625 C-14.391875 88.22910156 -14.78375 89.39570312 -15.1875 90.59765625 C-15.455625 91.39042969 -15.72375 92.18320313 -16 93 C-16.99 93 -17.98 93 -19 93 C-23.14088572 80.70949877 -27.13002159 68.37844159 -31 56 C-31.66 56 -32.32 56 -33 56 C-33.08765625 55.40703125 -33.1753125 54.8140625 -33.265625 54.203125 C-34.19767588 51.40697236 -35.43609694 50.54197004 -37.75 48.75 C-42.67728448 44.64540396 -45.96812178 40.09563466 -48 34 C-48.88176324 22.90237977 -48.33358071 14.78819363 -41.23828125 5.7578125 C-30.77085413 -5.83491611 -13.52415918 -7.79041428 0 0 Z " fill="#F1B738" transform="translate(48,4)"/>
<path d="M0 0 C6.5356579 3.7647799 11.8690116 9.38864008 14.54296875 16.46484375 C15.0139186 20.09778035 15.05276714 23.68014416 15.04296875 27.33984375 C15.07132813 28.29503906 15.0996875 29.25023438 15.12890625 30.234375 C15.15100928 38.29092936 12.70704978 42.70023305 7.62890625 48.7421875 C7.06429687 49.29003906 6.4996875 49.83789062 5.91796875 50.40234375 C5.34820312 50.96824219 4.7784375 51.53414062 4.19140625 52.1171875 C2.54296875 53.46484375 2.54296875 53.46484375 -0.45703125 54.46484375 C-1.54528357 56.70864786 -1.54528357 56.70864786 -2.32421875 59.50390625 C-2.65035156 60.55328369 -2.97648437 61.60266113 -3.3125 62.68383789 C-3.64894531 63.80781982 -3.98539063 64.93180176 -4.33203125 66.08984375 C-5.03707208 68.37260854 -5.74279996 70.65516125 -6.44921875 72.9375 C-6.9611377 74.61030029 -6.9611377 74.61030029 -7.48339844 76.31689453 C-8.74861591 80.40759515 -10.08713835 84.47070631 -11.45703125 88.52734375 C-11.84890625 89.69394531 -12.24078125 90.86054687 -12.64453125 92.0625 C-12.91265625 92.85527344 -13.18078125 93.64804688 -13.45703125 94.46484375 C-14.44703125 94.46484375 -15.43703125 94.46484375 -16.45703125 94.46484375 C-20.59791697 82.17434252 -24.58705284 69.84328534 -28.45703125 57.46484375 C-29.11703125 57.46484375 -29.77703125 57.46484375 -30.45703125 57.46484375 C-30.5446875 56.871875 -30.63234375 56.27890625 -30.72265625 55.66796875 C-31.65470713 52.87181611 -32.89312819 52.00681379 -35.20703125 50.21484375 C-40.13431573 46.11024771 -43.42515303 41.56047841 -45.45703125 35.46484375 C-46.34135535 24.33499327 -45.86608745 15.9985552 -38.484375 7.08203125 C-36.54588442 5.00223014 -34.77401563 3.11391017 -32.45703125 1.46484375 C-31.13703125 1.46484375 -29.81703125 1.46484375 -28.45703125 1.46484375 C-28.45703125 2.12484375 -28.45703125 2.78484375 -28.45703125 3.46484375 C-29.65056157 4.36813593 -30.88884839 5.21265857 -32.14453125 6.02734375 C-37.74342713 10.06768173 -41.13619568 15.67388107 -42.45703125 22.46484375 C-43.23689925 30.30851609 -41.43404123 36.66290148 -37.83203125 43.58984375 C-35.58033737 46.31557845 -34.00310978 47.38181796 -31.08203125 49.21484375 C-24.53704311 54.07530216 -23.22648694 61.54178201 -21.13769531 69.05322266 C-20.24847542 72.20376572 -19.2595515 75.31864525 -18.26660156 78.43774414 C-17.31126673 81.44105247 -16.38444198 84.45281067 -15.45703125 87.46484375 C-13.27898658 84.19777674 -12.40034197 81.11306246 -11.390625 77.3828125 C-10.98415453 75.96109203 -10.57589295 74.53988265 -10.16601562 73.11914062 C-9.5267237 70.89152754 -8.89748796 68.66339659 -8.29858398 66.42456055 C-4.51840399 52.38766841 -4.51840399 52.38766841 1.234375 48.59375 C2.66314495 47.86927549 4.09837067 47.15721885 5.54296875 46.46484375 C10.82107191 41.46453549 12.61473935 34.07765005 12.98046875 26.96484375 C12.67575416 19.13921902 9.16207722 11.83421407 3.54296875 6.46484375 C-3.18248495 1.53963776 -8.83720366 0.80035745 -17.01953125 1.15234375 C-18.02822266 1.17490234 -19.03691406 1.19746094 -20.07617188 1.22070312 C-22.53806493 1.27904182 -24.99671753 1.36082372 -27.45703125 1.46484375 C-22.28142697 -6.29856267 -7.53765356 -3.12862725 0 0 Z " fill="#CDC8BB" transform="translate(45.45703125,2.53515625)"/>
<path d="M0 0 C6.5356579 3.7647799 11.8690116 9.38864008 14.54296875 16.46484375 C15.0139186 20.09778035 15.05276714 23.68014416 15.04296875 27.33984375 C15.07132813 28.29503906 15.0996875 29.25023438 15.12890625 30.234375 C15.15125042 38.37882319 12.61978213 42.9484856 7.35546875 48.96484375 C5.54296875 50.46484375 5.54296875 50.46484375 3.54296875 50.46484375 C4.62298106 48.03481605 5.67445603 46.32063189 7.48046875 44.33984375 C11.94729815 38.11335429 13.70490365 30.04324136 12.54296875 22.46484375 C10.29959247 14.51653748 6.75979418 8.23186488 -0.41015625 3.81640625 C-5.93005882 0.82011094 -10.86355768 0.88752689 -17.01953125 1.15234375 C-18.02822266 1.17490234 -19.03691406 1.19746094 -20.07617188 1.22070312 C-22.53806493 1.27904182 -24.99671753 1.36082372 -27.45703125 1.46484375 C-22.28142697 -6.29856267 -7.53765356 -3.12862725 0 0 Z " fill="#E5DDC6" transform="translate(45.45703125,2.53515625)"/>
<path d="M0 0 C2.79784857 2.84307938 3.43143071 4.9985283 3.4375 8.9375 C3.32030411 12.39223091 3.03090979 13.94174693 1.375 17.0625 C-1.44583317 19.363706 -3.40653943 19.75499132 -7 20 C-7 19.34 -7 18.68 -7 18 C-6.21625 17.7525 -5.4325 17.505 -4.625 17.25 C-1.67682892 15.84610901 -1.0975223 14.99324263 0 12 C-0.9075 12.2475 -1.815 12.495 -2.75 12.75 C-6 13 -6 13 -8.375 11.4375 C-10.43774093 8.3433886 -10.54400387 6.65259739 -10 3 C-7.72375139 -1.01690931 -4.20725277 -0.5259066 0 0 Z " fill="#F9ECD0" transform="translate(34,21)"/>
<path d="M0 0 C0 0.66 0 1.32 0 2 C-1.19353032 2.90329218 -2.43181714 3.74781482 -3.6875 4.5625 C-9.19173413 8.53452711 -12.85484299 14.2483451 -14 21 C-14.06898242 23.59373914 -14.09434752 26.15810197 -14.0625 28.75 C-14.05798828 29.44738281 -14.05347656 30.14476563 -14.04882812 30.86328125 C-14.0371002 32.57555803 -14.01916653 34.28779033 -14 36 C-17.67666321 29.98894745 -16.65406025 21.41200335 -15.4375 14.6875 C-13.54202335 9.82519033 -10.64506748 6.66130386 -7 3 C-6.51402344 2.42894531 -6.02804687 1.85789062 -5.52734375 1.26953125 C-4 0 -4 0 0 0 Z " fill="#EDE4D3" transform="translate(17,4)"/>
<path d="M0 0 C2.01171875 1.0703125 2.01171875 1.0703125 3.01171875 3.0703125 C-3.73828125 2.1953125 -3.73828125 2.1953125 -5.98828125 1.0703125 C-7.65574185 0.98605156 -9.32653312 0.96306107 -10.99609375 0.97265625 C-11.98222656 0.97587891 -12.96835937 0.97910156 -13.984375 0.98242188 C-15.53318359 0.99499023 -15.53318359 0.99499023 -17.11328125 1.0078125 C-18.15355469 1.01232422 -19.19382812 1.01683594 -20.265625 1.02148438 C-22.83990087 1.03329298 -25.41406271 1.04976175 -27.98828125 1.0703125 C-22.52270761 -7.12804795 -7.76341618 -3.06003265 0 0 Z " fill="#E2D4B8" transform="translate(45.98828125,2.9296875)"/>
<path d="M0 0 C4.70588235 0.70588235 4.70588235 0.70588235 6 2 C6.125 4.5 6.125 4.5 6 7 C5 8 5 8 2.5 8.125 C0 8 0 8 -1 7 C-1.125 4 -1.125 4 -1 1 C-0.67 0.67 -0.34 0.34 0 0 Z " fill="#F2B72C" transform="translate(28,23)"/>
<path d="M0 0 C-2 3 -2 3 -5 4 C-6.25325285 6.78526449 -6.25325285 6.78526449 -7.1875 10.0625 C-7.53167969 11.16722656 -7.87585937 12.27195312 -8.23046875 13.41015625 C-8.48441406 14.26480469 -8.73835938 15.11945313 -9 16 C-11 13 -11 13 -10.71484375 10.40625 C-8.61426801 2.55284121 -8.61426801 2.55284121 -5.5 -0.25 C-3 -1 -3 -1 0 0 Z " fill="#D8CEBE" transform="translate(50,53)"/>
<path d="M0 0 C0.66 0 1.32 0 2 0 C2.6176587 8.8359509 2.6176587 8.8359509 0.375 13.0625 C-2.44583317 15.363706 -4.40653943 15.75499132 -8 16 C-8 15.34 -8 14.68 -8 14 C-7.21625 13.79375 -6.4325 13.5875 -5.625 13.375 C-2.75839061 12.21600839 -2.75839061 12.21600839 -1.75 9.25 C-1.04021516 6.1742657 -0.4463729 3.12461027 0 0 Z " fill="#FBF2E0" transform="translate(35,25)"/>
<path d="M0 0 C1.11483375 3.50619471 0.97273134 6.59499311 0.8125 10.25 C0.72911316 16.44147312 2.00642414 19.68881703 5 25 C4.62109375 27.21484375 4.62109375 27.21484375 4 29 C-1.67486674 20.56876941 -1.7778088 12.78927928 -1 3 C-0.67 2.01 -0.34 1.02 0 0 Z " fill="#A49984" transform="translate(1,19)"/>
<path d="M0 0 C0.99 1.051875 0.99 1.051875 2 2.125 C5.34985941 5.49416695 9.15652564 8.22468725 13 11 C11.26171875 11.6953125 11.26171875 11.6953125 9 12 C6.89453125 10.7421875 6.89453125 10.7421875 4.8125 8.875 C4.11769531 8.27429687 3.42289063 7.67359375 2.70703125 7.0546875 C0.74169196 4.68908461 0.35007388 3.02004037 0 0 Z " fill="#E4DFCF" transform="translate(5,44)"/>
<path d="M0 0 C0.66 1.32 1.32 2.64 2 4 C3.98 4 5.96 4 8 4 C8.33 4.99 8.66 5.98 9 7 C2.375 8.25 2.375 8.25 -1 6 C-0.67 4.02 -0.34 2.04 0 0 Z " fill="#F8E6C3" transform="translate(26,26)"/>
<path d="M0 0 C1.0326802 2.78823655 1.04509293 3.8677274 0.0625 6.75 C-0.288125 7.4925 -0.63875 8.235 -1 9 C-1.99 9 -2.98 9 -4 9 C-4.625 6.625 -4.625 6.625 -5 4 C-3 2 -3 2 0 0 Z " fill="#CAC6BD" transform="translate(33,88)"/>
<path d="M0 0 C4.77576339 0.4682121 8.04476345 1.24331998 12 4 C9.21176345 5.0326802 8.1322726 5.04509293 5.25 4.0625 C4.5075 3.711875 3.765 3.36125 3 3 C3 2.34 3 1.68 3 1 C2.01 0.67 1.02 0.34 0 0 Z " fill="#BEB6A5" transform="translate(37,1)"/>
<path d="M0 0 C2.51699845 2.51699845 3.10964078 4.57554146 4 8 C3.625 10.375 3.625 10.375 3 12 C0.58314288 7.77050005 -0.34833144 4.87664009 0 0 Z " fill="#E5E1D5" transform="translate(21,66)"/>
<path d="M0 0 C3.77545388 1.09068668 6.47043472 1.9083091 9 5 C8.67 5.99 8.34 6.98 8 8 C6.66372225 6.85760183 5.33104612 5.71098945 4 4.5625 C3.2575 3.92441406 2.515 3.28632813 1.75 2.62890625 C1.1725 2.09136719 0.595 1.55382812 0 1 C0 0.67 0 0.34 0 0 Z " fill="#EFE9DB" transform="translate(45,5)"/>
<path d="M0 0 C0.99 0.33 1.98 0.66 3 1 C1 4 1 4 -2 5 C-2.66 5.99 -3.32 6.98 -4 8 C-4.25 5.6875 -4.25 5.6875 -4 3 C-2.1875 1.125 -2.1875 1.125 0 0 Z " fill="#C2BDAE" transform="translate(47,52)"/>
<path d="M0 0 C0.66 0.99 1.32 1.98 2 3 C0.71937515 4.7074998 -0.61767557 6.37373596 -2 8 C-2.66 8 -3.32 8 -4 8 C-2.25 2.25 -2.25 2.25 0 0 Z " fill="#CCBCA2" transform="translate(6,11)"/>
<path d="M0 0 C0.99 0.33 1.98 0.66 3 1 C1.515 4.465 1.515 4.465 0 8 C-0.66 8 -1.32 8 -2 8 C-2.125 5.125 -2.125 5.125 -2 2 C-1.34 1.34 -0.68 0.68 0 0 Z " fill="#FBF2DF" transform="translate(26,22)"/>
<path d="M0 0 C2.79872437 2.52788007 4.45773019 4.20411134 5 8 C4.01 8 3.02 8 2 8 C0.23537317 4.91190305 0 3.76687864 0 0 Z " fill="#CDBEA5" transform="translate(54,11)"/>
<path d="M0 0 C0.33 0.99 0.66 1.98 1 3 C-0.28965176 4.37562854 -1.62689293 5.70766393 -3 7 C-3.66 7 -4.32 7 -5 7 C-3.70700306 4.11562221 -2.34058637 2.12780579 0 0 Z " fill="#EEE9D9" transform="translate(54,46)"/>
<path d="M0 0 C2.09749995 2.35968744 2.96905704 3.54616994 3.1875 6.75 C3.125625 7.4925 3.06375 8.235 3 9 C0.11749016 6.61879622 -0.61038985 4.70129644 -1 1 C-0.67 0.67 -0.34 0.34 0 0 Z " fill="#BDB09E" transform="translate(3,39)"/>
<path d="M0 0 C1.98 1.65 3.96 3.3 6 5 C3 5 3 5 1.3125 3.625 C0 2 0 2 0 0 Z " fill="#8B8B8B" transform="translate(5,49)"/>
<path d="M0 0 C0.66 0.33 1.32 0.66 2 1 C0.35 2.32 -1.3 3.64 -3 5 C-1.125 1.125 -1.125 1.125 0 0 Z " fill="#8D8D8D" transform="translate(9,5)"/>
<path d="M0 0 C1.32 0.99 2.64 1.98 4 3 C3.67 3.66 3.34 4.32 3 5 C1.5 3.625 1.5 3.625 0 2 C0 1.34 0 0.68 0 0 Z " fill="#8F8F7F" transform="translate(52,6)"/>
<path d="M0 0 C0.33 0.99 0.66 1.98 1 3 C0.34 3.99 -0.32 4.98 -1 6 C-0.67 4.02 -0.34 2.04 0 0 Z " fill="#C5C5BC" transform="translate(40,73)"/>
<path d="M0 0 C0.625 1.875 0.625 1.875 1 4 C0.34 4.66 -0.32 5.32 -1 6 C-0.67 4.02 -0.34 2.04 0 0 Z " fill="#B5B5B5" transform="translate(42,66)"/>
<path d="M0 0 C0.99 0.33 1.98 0.66 3 1 C2.34 1 1.68 1 1 1 C0.67 1.66 0.34 2.32 0 3 C0 2.01 0 1.02 0 0 Z " fill="#B2B2B2" transform="translate(45,57)"/>
<path d="M0 0 C1 4 1 4 1 4 Z " fill="#E9E9E9" transform="translate(35,88)"/>
<path d="M0 0 C1 4 1 4 1 4 Z " fill="#AFAFAF" transform="translate(23,82)"/>
<path d="M0 0 C1 4 1 4 1 4 Z " fill="#9D9D9D" transform="translate(18,66)"/>
<path d="M0 0 C1 4 1 4 1 4 Z " fill="#BFBFAA" transform="translate(43,62)"/>
<path d="M0 0 C0 3 0 3 0 3 Z " fill="#7F7F7F" transform="translate(56,48)"/>
<path d="" fill="#C3C3C3" transform="translate(0,0)"/>
<path d="" fill="#BFBFAA" transform="translate(0,0)"/>
<path d="" fill="#AEAEAE" transform="translate(0,0)"/>
<path d="" fill="#CDCDCD" transform="translate(0,0)"/>
<path d="" fill="#BFBFBF" transform="translate(0,0)"/>
<path d="" fill="#E9E9E9" transform="translate(0,0)"/>
<path d="" fill="#E2E2CD" transform="translate(0,0)"/>
<path d="" fill="#BFBFBF" transform="translate(0,0)"/>
<path d="" fill="#8D8D8D" transform="translate(0,0)"/>
<path d="" fill="#949494" transform="translate(0,0)"/>
<path d="" fill="#7C8D8D" transform="translate(0,0)"/>
<path d="M0 0 C3 1 3 1 3 1 Z " fill="#D4D4AA" transform="translate(41,0)"/>
<path d="" fill="#D4D4D4" transform="translate(0,0)"/>
<path d="" fill="#AAAA90" transform="translate(0,0)"/>
<path d="" fill="#D4D4D4" transform="translate(0,0)"/>
<path d="" fill="#D4D4D4" transform="translate(0,0)"/>
<path d="" fill="#BBBBBB" transform="translate(0,0)"/>
<path d="M0 0 C2 1 2 1 2 1 Z " fill="#BFBF7F" transform="translate(12,56)"/>
<path d="M0 0 C2 1 2 1 2 1 Z " fill="#7F7F7F" transform="translate(50,54)"/>
<path d="" fill="#D4D47F" transform="translate(0,0)"/>
<path d="" fill="#BFBF7F" transform="translate(0,0)"/>
<path d="" fill="#D4D4AA" transform="translate(0,0)"/>
<path d="" fill="#D4D4AA" transform="translate(0,0)"/>
<path d="" fill="#D4D48A" transform="translate(0,0)"/>
<path d="" fill="#D4D48A" transform="translate(0,0)"/>
<path d="" fill="#D4D4AA" transform="translate(0,0)"/>
<path d="" fill="#D4D4D4" transform="translate(0,0)"/>
<path d="" fill="#BFBF7F" transform="translate(0,0)"/>
<path d="" fill="#BFBF7F" transform="translate(0,0)"/>
<path d="M0 0 C2 1 2 1 2 1 Z " fill="#7F7F7F" transform="translate(50,5)"/>
<path d="M0 0 C2 1 2 1 2 1 Z " fill="#7F5F5F" transform="translate(46,2)"/>
<path d="M0 0 C2 1 2 1 2 1 Z " fill="#5F5F5F" transform="translate(13,2)"/>
<path d="M0 0 C2 1 2 1 2 1 Z " fill="#BFBFBF" transform="translate(44,1)"/>
<path d="M0 0 C2 1 2 1 2 1 Z " fill="#BFBF7F" transform="translate(15,1)"/>
<path d="M0 0 C2 1 2 1 2 1 Z " fill="#9F9F5F" transform="translate(17,0)"/>
<path d="" fill="#AAAA55" transform="translate(0,0)"/>
<path d="" fill="#FFCCCC" transform="translate(0,0)"/>
<path d="" fill="#FFFFBF" transform="translate(0,0)"/>
<path d="" fill="#808000" transform="translate(0,0)"/>
<path d="" fill="#800000" transform="translate(0,0)"/>
<path d="" fill="#800000" transform="translate(0,0)"/>
<path d="" fill="#FFFFBF" transform="translate(0,0)"/>
<path d="" fill="#FFBFBF" transform="translate(0,0)"/>
<path d="" fill="#BFBF80" transform="translate(0,0)"/>
<path d="" fill="#FFBFBF" transform="translate(0,0)"/>
<path d="" fill="#BFBF80" transform="translate(0,0)"/>
<path d="" fill="#FFFFFF" transform="translate(0,0)"/>
<path d="" fill="#CCCC99" transform="translate(0,0)"/>
<path d="" fill="#FFFFFF" transform="translate(0,0)"/>
<path d="" fill="#CCCCCC" transform="translate(0,0)"/>
<path d="" fill="#FFCC99" transform="translate(0,0)"/>
<path d="" fill="#AAAAAA" transform="translate(0,0)"/>
<path d="" fill="#AAAA55" transform="translate(0,0)"/>
</svg>
