<svg width="110" height="180" viewBox="0 0 110 180" fill="none" xmlns="http://www.w3.org/2000/svg">
<circle cx="55" cy="55" r="55" fill="#089627"/>
<circle cx="55" cy="55" r="53.5" fill="#089627" stroke="white" stroke-width="3"/>
<path d="M29.5186 96.25H80.4814L55 176.689L29.5186 96.25Z" fill="#089627" stroke="white" stroke-width="2"/>
<circle cx="55" cy="55" r="52" fill="#089627"/>
<path d="M43.6136 73V69.9318L55.1364 57.3182C56.4886 55.8409 57.6023 54.5568 58.4773 53.4659C59.3523 52.3636 60 51.3295 60.4205 50.3636C60.8523 49.3864 61.0682 48.3636 61.0682 47.2955C61.0682 46.0682 60.7727 45.0057 60.1818 44.108C59.6023 43.2102 58.8068 42.517 57.7955 42.0284C56.7841 41.5398 55.6477 41.2955 54.3864 41.2955C53.0455 41.2955 51.875 41.5739 50.875 42.1307C49.8864 42.6761 49.1193 43.4432 48.5739 44.4318C48.0398 45.4205 47.7727 46.5795 47.7727 47.9091H43.75C43.75 45.8636 44.2216 44.0682 45.1648 42.5227C46.108 40.9773 47.392 39.7727 49.017 38.9091C50.6534 38.0455 52.4886 37.6136 54.5227 37.6136C56.5682 37.6136 58.3807 38.0455 59.9602 38.9091C61.5398 39.7727 62.7784 40.9375 63.6761 42.4034C64.5739 43.8693 65.0227 45.5 65.0227 47.2955C65.0227 48.5795 64.7898 49.8352 64.3239 51.0625C63.8693 52.2784 63.0739 53.6364 61.9375 55.1364C60.8125 56.625 59.25 58.4432 57.25 60.5909L49.4091 68.9773V69.25H65.6364V73H43.6136Z" fill="white"/>
</svg>
